<svg width="20" height="20" viewBox="0 0 20 20" fill="none" xmlns="http://www.w3.org/2000/svg">
    <path d="M10.0781 15.4688C11.3281 14.349 12.2526 13.5026 12.8516 12.9297C13.4505 12.3568 14.1016 11.6797 14.8047 10.8984C15.5078 10.1172 15.9896 9.42708 16.25 8.82812C16.5365 8.22917 16.6797 7.64323 16.6797 7.07031C16.6797 6.23698 16.3932 5.54688 15.8203 5C15.2734 4.45312 14.5833 4.17969 13.75 4.17969C13.099 4.17969 12.487 4.36198 11.9141 4.72656C11.3672 5.09115 10.9896 5.5599 10.7812 6.13281H9.21875C9.01042 5.5599 8.61979 5.09115 8.04688 4.72656C7.5 4.36198 6.90104 4.17969 6.25 4.17969C5.41667 4.17969 4.71354 4.45312 4.14062 5C3.59375 5.54688 3.32031 6.23698 3.32031 7.07031C3.32031 7.64323 3.45052 8.22917 3.71094 8.82812C3.9974 9.42708 4.49219 10.1172 5.19531 10.8984C5.89844 11.6797 6.54948 12.3568 7.14844 12.9297C7.7474 13.5026 8.67188 14.349 9.92188 15.4688L10 15.5469L10.0781 15.4688ZM13.75 2.5C15.0521 2.5 16.1328 2.94271 16.9922 3.82812C17.8776 4.71354 18.3203 5.79427 18.3203 7.07031C18.3203 7.82552 18.1771 8.56771 17.8906 9.29688C17.6042 10 17.0703 10.7943 16.2891 11.6797C15.5339 12.5651 14.8438 13.3073 14.2188 13.9062C13.5938 14.5052 12.5911 15.4297 11.2109 16.6797L10 17.7734L8.78906 16.7188C6.99219 15.1042 5.6901 13.8932 4.88281 13.0859C4.10156 12.2786 3.3724 11.3281 2.69531 10.2344C2.01823 9.14062 1.67969 8.08594 1.67969 7.07031C1.67969 5.79427 2.10938 4.71354 2.96875 3.82812C3.85417 2.94271 4.94792 2.5 6.25 2.5C7.76042 2.5 9.01042 3.08594 10 4.25781C10.9896 3.08594 12.2396 2.5 13.75 2.5Z" fill="#FFFCFC" fill-opacity="0.5"/>
</svg>
