<?xml version="1.0" encoding="UTF-8"?>
<svg id="Layer_1" data-name="Layer 1" xmlns="http://www.w3.org/2000/svg" width="20" height="20" viewBox="0 0 20 20">
  <g id="Layer_2" data-name="Layer 2" style="opacity: .5;">
    <g id="layer_1-2" data-name="layer 1-2">
      <path d="M10,20C4.477,20,0,15.523,0,10S4.477,0,10,0s10,4.477,10,10-4.477,10-10,10ZM10,.833C4.937,.833,.833,4.937,.833,10s4.104,9.167,9.167,9.167,9.167-4.104,9.167-9.167S15.063,.833,10,.833Z" style="fill: #fffdfd;"/>
      <path d="M10,16.667c-3.682,0-6.667-2.985-6.667-6.667S6.318,3.333,10,3.333s6.667,2.985,6.667,6.667-2.985,6.667-6.667,6.667Zm0-12.5c-3.222,0-5.833,2.612-5.833,5.833s2.612,5.833,5.833,5.833,5.833-2.612,5.833-5.833-2.612-5.833-5.833-5.833Z" style="fill: #fffdfd;"/>
      <rect x="1.667" y="9.583" width=".833" height=".833" style="fill: #fffdfd;"/>
      <rect x="17.5" y="9.583" width=".833" height=".833" style="fill: #fffdfd;"/>
      <rect x="13.75" y="9.583" width=".833" height=".833" style="fill: #fffdfd;"/>
      <rect x="5.417" y="9.583" width=".833" height=".833" style="fill: #fffdfd;"/>
      <rect x="13.75" y="2.917" width=".833" height=".833" style="fill: #fffdfd;"/>
      <rect x="9.583" y="1.667" width=".833" height=".833" style="fill: #fffdfd;"/>
      <rect x="9.583" y="17.5" width=".833" height=".833" style="fill: #fffdfd;"/>
      <rect x="5.417" y="2.917" width=".833" height=".833" style="fill: #fffdfd;"/>
      <rect x="13.75" y="16.25" width=".833" height=".833" style="fill: #fffdfd;"/>
      <rect x="5.417" y="16.25" width=".833" height=".833" style="fill: #fffdfd;"/>
      <rect x="2.5" y="5.833" width=".833" height=".833" style="fill: #fffdfd;"/>
      <rect x="2.5" y="13.333" width=".833" height=".833" style="fill: #fffdfd;"/>
      <rect x="16.667" y="5.833" width=".833" height=".833" style="fill: #fffdfd;"/>
      <rect x="16.667" y="13.333" width=".833" height=".833" style="fill: #fffdfd;"/>
      <path d="M11.879,6.729c-.604,0-1.095,.492-1.095,1.096v1.531c-.254-.071-.521-.109-.797-.109s-.526,.036-.772,.102v-1.525c0-.604-.491-1.096-1.095-1.096s-1.095,.492-1.095,1.096v4.35c0,.029,.001,.058,.003,.087,.031,.4,.279,.741,.625,.905,.141,.067,.299,.104,.466,.104,.604,0,1.095-.492,1.095-1.096v-2.17c.242-.085,.502-.132,.772-.132s.548,.05,.797,.14v2.161c0,.604,.491,1.096,1.095,1.096,.157,0,.306-.033,.442-.093,.312-.138,.547-.418,.625-.757,.018-.079,.028-.161,.028-.246V7.825c0-.604-.491-1.096-1.095-1.096Zm-4.178,1.096c0-.232,.188-.421,.42-.421s.42,.189,.42,.421v1.801c-.322,.182-.607,.422-.84,.707v-2.508Zm.84,4.35c0,.232-.189,.421-.42,.421s-.42-.189-.42-.421v-.428c.111-.551,.416-1.032,.84-1.369v1.797Zm2.918-4.35c0-.232,.188-.421,.42-.421s.42,.189,.42,.421v2.538c-.232-.29-.517-.536-.84-.723v-1.815Zm.84,4.35c0,.232-.189,.421-.42,.421s-.42-.189-.42-.421v-1.777c.449,.366,.76,.895,.84,1.497v.281Z" style="fill: #fffdfd;"/>
    </g>
  </g>
</svg>