<svg width="25" height="22" viewBox="0 0 25 22" fill="none" xmlns="http://www.w3.org/2000/svg">
<path d="M0.5 18.82C0.5 13.6056 0.5 8.39171 0.5 3.17724C0.51625 3.11827 0.536875 3.05993 0.546875 2.99972C0.805625 1.49143 2.14625 0.339415 3.68062 0.337553C8.78062 0.331966 13.8813 0.330725 18.9813 0.337553C20.5425 0.340035 21.9175 1.57026 22.1075 3.10958C22.1256 3.25855 22.1888 3.31565 22.3213 3.36345C23.2894 3.71104 23.9544 4.36898 24.31 5.32795C24.3925 5.55016 24.4375 5.78665 24.5 6.0163V18.8194C24.4856 18.8629 24.465 18.9051 24.4575 18.9498C24.1981 20.5164 22.865 21.6591 21.2738 21.6597C15.425 21.6628 9.57563 21.6622 3.72688 21.6597C2.33 21.6597 1.0975 20.7653 0.663125 19.4463C0.595625 19.2427 0.55375 19.0292 0.5 18.82ZM22.99 15.9183C22.8512 15.9183 22.7506 15.9183 22.65 15.9183C21.0331 15.9096 19.4137 15.958 17.8006 15.8779C15.8775 15.7823 14.4038 13.8489 14.7269 11.9663C15.0294 10.2054 16.4269 9.03103 18.2294 9.02854C19.7213 9.02668 21.2138 9.02854 22.7056 9.0273C22.7963 9.0273 22.8862 9.01985 22.99 9.01489C22.99 8.16453 22.9919 7.34273 22.99 6.52093C22.9869 5.4074 22.2606 4.68305 21.1413 4.68305C15.3763 4.68181 9.61125 4.68181 3.84625 4.68305C2.74438 4.68305 2.01188 5.41299 2.01125 6.511C2.00937 10.4524 2.00937 14.3938 2.01312 18.3353C2.01312 18.5196 2.0325 18.7095 2.07938 18.8871C2.29125 19.6859 2.96688 20.1645 3.87063 20.1645C9.62 20.1651 15.3694 20.1645 21.1187 20.1645C21.1812 20.1645 21.2437 20.1645 21.3062 20.162C22.1812 20.1191 22.8713 19.5115 22.9619 18.6469C23.0125 18.1627 22.9856 17.6711 22.9894 17.1826C22.9925 16.773 22.99 16.3633 22.99 15.9189V15.9183ZM20.5781 3.1791C20.5575 3.09282 20.5494 3.04006 20.5325 2.98979C20.2856 2.26978 19.6319 1.83343 18.7906 1.83343C13.8169 1.83281 8.84313 1.83281 3.86937 1.83467C3.71438 1.83467 3.55687 1.84709 3.40375 1.8744C2.57312 2.0215 1.92 2.86255 2.0375 3.64152C2.06687 3.63159 2.09688 3.626 2.12188 3.61235C2.70062 3.28338 3.32625 3.17538 3.98813 3.176C9.40687 3.18158 14.8256 3.1791 20.2444 3.1791H20.5775H20.5781ZM22.9775 10.5455C22.9263 10.5381 22.9031 10.5319 22.88 10.5319C21.2794 10.5319 19.6787 10.5207 18.0781 10.5443C17.7869 10.5486 17.4737 10.6486 17.2125 10.7839C16.4288 11.1892 16.05 12.0873 16.2606 12.9377C16.4694 13.7812 17.2319 14.3976 18.1169 14.4032C19.6862 14.4131 21.2556 14.4069 22.825 14.4056C22.8756 14.4056 22.9263 14.3895 22.9781 14.3808V10.5455H22.9775Z" fill="white"/>
</svg>
