<svg xmlns="http://www.w3.org/2000/svg" xmlns:xlink="http://www.w3.org/1999/xlink" viewBox="0 0 439.64 439.63"><defs><style>.cls-1{fill:url(#Degradado_sin_nombre_844);}.cls-2{fill:url(#linear-gradient);}</style><linearGradient id="Degradado_sin_nombre_844" x1="56.25" y1="39.49" x2="383.39" y2="400.13" gradientUnits="userSpaceOnUse"><stop offset="0" stop-color="#fbcb82"/><stop offset="0.48" stop-color="#fb9e82"/><stop offset="0.63" stop-color="#dc8483"/><stop offset="0.88" stop-color="#ad5f84"/><stop offset="1" stop-color="#9b5085"/></linearGradient><linearGradient id="linear-gradient" x1="85.84" y1="221.6" x2="353.82" y2="221.6" gradientUnits="userSpaceOnUse"><stop offset="0.08" stop-color="#c2cccc"/><stop offset="0.69" stop-color="#fff"/></linearGradient></defs><title>Asset 1</title><g id="Layer_2" data-name="Layer 2"><g id="Capa_1" data-name="Capa 1"><g id="logo-standalone"><path class="cls-1" d="M429,115.56A136.23,136.23,0,0,0,324.07,10.65,503.82,503.82,0,0,0,219.82,0,504.06,504.06,0,0,0,115.56,10.65,136.26,136.26,0,0,0,10.65,115.56,504.65,504.65,0,0,0,0,219.81,504.51,504.51,0,0,0,10.65,324.06,136.26,136.26,0,0,0,115.56,429a504.74,504.74,0,0,0,104.26,10.66A504.5,504.5,0,0,0,324.07,429,136.23,136.23,0,0,0,429,324.06a503.81,503.81,0,0,0,10.66-104.25A504,504,0,0,0,429,115.56Z"/><path class="cls-2" d="M135.65,75.31a49.92,49.92,0,0,1,49.81,49.81v66.3a133.18,133.18,0,0,1,68.73,0v-66.3a49.82,49.82,0,0,1,99.63,0v193c0,.58,0,1.17,0,1.75l0,1.09h-.08a49.82,49.82,0,0,1-99.55-2.84V224.4a102.05,102.05,0,0,0-68.73,0v93.67a49.81,49.81,0,0,1-99.54,2.84h-.08l0-1.09c0-.58,0-1.16,0-1.75V125.12a49.92,49.92,0,0,1,49.81-49.81ZM117.36,234.84a135.47,135.47,0,0,1,36.57-30.47V125.12a18.29,18.29,0,0,0-36.57,0V234.84Zm168.36-30.46a135.25,135.25,0,0,1,36.57,30.46V125.12a18.29,18.29,0,0,0-36.57,0v79.26Zm36.57,113.2c0-.62-.08-1.7-.18-3.25a102.39,102.39,0,0,0-32.31-68.14q-2-1.86-4.08-3.62v75.5a18.29,18.29,0,0,0,36.57,0v-.49Zm-168.36-75c-1.44,1.22-2.86,2.48-4.24,3.78a102.36,102.36,0,0,0-32.18,68.38c-.08,1.3-.12,2.23-.15,2.8v.54a18.29,18.29,0,0,0,36.57,0v-75.5Z"/></g></g></g></svg>