<svg width="20" height="20" viewBox="0 0 20 20" fill="none" xmlns="http://www.w3.org/2000/svg">
<path d="M10 20C16.5447 20 20 17.2142 20 10C20 2.78581 16.7999 0 10 0C3.20007 0 0 2.27543 0 10C0 16.9063 2.46683 20 10 20Z" fill="#BC1064"/>
<path d="M13.1594 4C12.1444 4 11.3188 4.82714 11.3188 5.84318V8.41772C10.8923 8.29809 10.4432 8.23412 9.9794 8.23412C9.51556 8.23412 9.09519 8.29393 8.68125 8.40636V5.84318C8.68125 4.82714 7.85563 4 6.84062 4C5.82562 4 5 4.82714 5 5.84318V13.1568C5 13.206 5.00189 13.2545 5.00567 13.3026C5.05859 13.9756 5.47443 14.5488 6.05697 14.8244C6.29475 14.9372 6.5605 15 6.84062 15C7.85563 15 8.68125 14.1729 8.68125 13.1568V9.50833C9.08763 9.36486 9.52463 9.28687 9.9794 9.28687C10.4342 9.28687 10.9007 9.37016 11.3188 9.52309V13.1568C11.3188 14.1729 12.1444 15 13.1594 15C13.4232 15 13.6746 14.944 13.9018 14.8433C14.4258 14.6108 14.8219 14.1407 14.9531 13.5706C14.9837 13.4377 15 13.2992 15 13.1568V5.84318C15 4.82714 14.1744 4 13.1594 4ZM6.13409 5.84318C6.13409 5.45327 6.45088 5.13566 6.84062 5.13566C7.23037 5.13566 7.54716 5.45327 7.54716 5.84318V8.87122C7.00544 9.17672 6.5261 9.58063 6.13409 10.0591V5.84318ZM7.54716 13.1568C7.54716 13.5467 7.22999 13.8643 6.84062 13.8643C6.45125 13.8643 6.13409 13.5467 6.13409 13.1568V12.4376C6.32046 11.5113 6.83344 10.7019 7.54716 10.1356V13.1568ZM12.4528 5.84318C12.4528 5.45327 12.7696 5.13566 13.1594 5.13566C13.5491 5.13566 13.8659 5.45327 13.8659 5.84318V10.1098C13.4762 9.62152 12.9968 9.20814 12.4528 8.89469V5.84318ZM13.8659 13.1568C13.8659 13.5467 13.5487 13.8643 13.1594 13.8643C12.77 13.8643 12.4528 13.5467 12.4528 13.1568V10.1689C13.2074 10.7841 13.7298 11.674 13.8659 12.6851V13.1568Z" fill="white"/>
</svg>
