<svg width="53" height="52" viewBox="0 0 53 52" fill="none" xmlns="http://www.w3.org/2000/svg">
<rect width="52.6186" height="51.9588" rx="16" fill="#20083B" fill-opacity="0.75"/>
<rect x="0.5" y="0.5" width="51.6186" height="50.9588" rx="15.5" stroke="#FFFCFC" stroke-opacity="0.5"/>
<path d="M28.1206 30.8773C27.8937 30.9327 27.6653 30.9817 27.4357 31.0245C26.1897 31.2591 24.9104 31.2542 23.6661 31.0104C23.4482 30.9679 23.1398 30.8929 22.7421 30.7868L21.4389 32.4806C18.2226 32.3773 17 30.2222 17 30.2222C17 25.438 19.0956 21.5595 19.0956 21.5595C21.1913 19.9563 23.185 20.0001 23.185 20.0001L23.7553 20.743C23.8078 20.7356 23.8607 20.7309 23.9138 20.7289C25.0008 20.5848 26.1024 20.5895 27.1881 20.743L27.8136 20.0001C27.8136 20.0001 29.8087 19.9563 31.9029 21.5609C31.9029 21.5609 34 25.438 34 30.2222C34 30.2222 32.7619 32.3758 29.5455 32.4806L28.1206 30.8773ZM22.6898 25.8116C21.8394 25.8116 21.1672 26.4483 21.1672 27.2266C21.1672 28.0049 21.8535 28.6416 22.6898 28.6416C23.5388 28.6416 24.2109 28.0049 24.2109 27.2266C24.2251 26.4483 23.5402 25.8116 22.6898 25.8116ZM28.1348 25.8116C27.2857 25.8116 26.6136 26.4483 26.6136 27.2266C26.6136 28.0049 27.2999 28.6416 28.1348 28.6416C28.9852 28.6416 29.6573 28.0049 29.6573 27.2266C29.6573 26.4483 28.9852 25.8116 28.1348 25.8116Z" fill="#FFFDFD"/>
</svg>
