<svg width="53" height="52" viewBox="0 0 53 52" fill="none" xmlns="http://www.w3.org/2000/svg">
<rect width="52.6186" height="51.9588" rx="16" fill="#20083B" fill-opacity="0.75"/>
<rect x="0.5" y="0.5" width="51.6186" height="50.9588" rx="15.5" stroke="#FFFCFC" stroke-opacity="0.5"/>
<g clip-path="url(#clip0_0_1)">
<path d="M26.5 19.35C28.5019 19.35 28.7385 19.3558 29.5288 19.3962C30.2615 19.4308 30.6596 19.5519 30.9192 19.6558C31.2712 19.7942 31.5192 19.9558 31.7788 20.2154C32.0442 20.4808 32.2058 20.7288 32.3385 21.075C32.4423 21.3404 32.5635 21.7385 32.5981 22.4654C32.6327 23.2558 32.6442 23.4923 32.6442 25.4942C32.6442 27.4962 32.6385 27.7327 32.5981 28.5231C32.5635 29.2558 32.4423 29.6538 32.3385 29.9135C32.2 30.2654 32.0385 30.5135 31.7788 30.7788C31.5192 31.0385 31.2654 31.2058 30.9192 31.3385C30.6538 31.4423 30.2558 31.5635 29.5288 31.5981C28.7385 31.6327 28.5019 31.6442 26.5 31.6442C24.4981 31.6442 24.2615 31.6385 23.4712 31.5981C22.7385 31.5635 22.3404 31.4423 22.0808 31.3385C21.7288 31.2 21.4808 31.0385 21.2154 30.7788C20.9558 30.5135 20.7885 30.2654 20.6558 29.9135C20.5519 29.6481 20.4308 29.25 20.3962 28.5231C20.3615 27.7327 20.35 27.4962 20.35 25.4942C20.35 23.4923 20.3558 23.2558 20.3962 22.4654C20.4308 21.7327 20.5519 21.3346 20.6558 21.075C20.7942 20.7231 20.9558 20.475 21.2154 20.2154C21.4808 19.95 21.7288 19.7885 22.0808 19.6558C22.3462 19.5519 22.7442 19.4308 23.4712 19.3962C24.2615 19.3615 24.4981 19.35 26.5 19.35ZM26.5 18C24.4635 18 24.2096 18.0115 23.4077 18.0462C22.6115 18.0808 22.0635 18.2077 21.5846 18.3923C21.0885 18.5827 20.6731 18.8423 20.2577 19.2577C19.8423 19.6731 19.5827 20.0942 19.3923 20.5846C19.2077 21.0635 19.0808 21.6058 19.0462 22.4077C19.0115 23.2096 19 23.4635 19 25.5C19 27.5365 19.0058 27.7904 19.0462 28.5923C19.0808 29.3885 19.2077 29.9365 19.3923 30.4154C19.5827 30.9058 19.8423 31.3269 20.2577 31.7423C20.6731 32.1577 21.0942 32.4173 21.5846 32.6077C22.0635 32.7923 22.6058 32.9192 23.4077 32.9538C24.2096 32.9885 24.4635 33 26.5 33C28.5365 33 28.7904 32.9942 29.5923 32.9538C30.3885 32.9192 30.9365 32.7923 31.4154 32.6077C31.9115 32.4173 32.3269 32.1577 32.7423 31.7423C33.1577 31.3269 33.4173 30.9058 33.6077 30.4154C33.7923 29.9365 33.9192 29.3942 33.9538 28.5923C33.9885 27.7904 34 27.5365 34 25.5C34 23.4635 33.9942 23.2096 33.9538 22.4077C33.9192 21.6115 33.7923 21.0635 33.6077 20.5846C33.4173 20.0942 33.1577 19.6731 32.7423 19.2577C32.3269 18.8423 31.9058 18.5827 31.4154 18.3923C30.9365 18.2077 30.3942 18.0808 29.5923 18.0462C28.7904 18.0115 28.5365 18 26.5 18" fill="#FFFDFD"/>
<path d="M26.5 21.6519C24.3711 21.6519 22.6461 23.3769 22.6461 25.5058C22.6461 27.6346 24.3711 29.3596 26.5 29.3596C28.6288 29.3596 30.3538 27.6346 30.3538 25.5058C30.3538 23.3769 28.6288 21.6519 26.5 21.6519ZM26.5 28.0038C25.1211 28.0038 24.0019 26.8846 24.0019 25.5058C24.0019 24.1269 25.1211 23.0077 26.5 23.0077C27.8788 23.0077 28.998 24.1269 28.998 25.5058C28.998 26.8846 27.8788 28.0038 26.5 28.0038Z" fill="#FFFDFD"/>
<path d="M31.4039 21.4962C31.4039 21.9923 31 22.3962 30.5039 22.3962C30.0077 22.3962 29.6039 21.9923 29.6039 21.4962C29.6039 21 30.0077 20.5962 30.5039 20.5962C31 20.5962 31.4039 21 31.4039 21.4962Z" fill="#FFFDFD"/>
</g>
<defs>
<clipPath id="clip0_0_1">
<rect width="15" height="15" fill="white" transform="translate(19 18)"/>
</clipPath>
</defs>
</svg>
