<svg width="19" height="19" viewBox="0 0 19 19" fill="none" xmlns="http://www.w3.org/2000/svg">
    <circle cx="9.5" cy="9.5" r="9.5" fill="#372649"/>
    <path d="M7.03769 7.99854H5.1792V13.9954H7.03769V7.99854Z" fill="#FFFDFD"/>
    <path d="M6.09906 7.21582C6.70755 7.21582 7.19811 6.7208 7.19811 6.10791C7.19811 5.49502 6.70755 5 6.09906 5C5.49057 5 5 5.49502 5 6.10791C5 6.7208 5.49057 7.21582 6.09906 7.21582Z" fill="#FFFDFD"/>
    <path d="M10.0047 10.8506C10.0047 10.0067 10.3915 9.50696 11.1368 9.50696C11.8207 9.50696 12.1462 9.98784 12.1462 10.8506V13.9999H13.9953V10.2C13.9953 8.59235 13.0849 7.81445 11.8113 7.81445C10.5377 7.81445 10.0047 8.8045 10.0047 8.8045V7.99832H8.22168V13.9952H10.0047V10.8459V10.8506Z" fill="#FFFDFD"/>
</svg>
