<svg width="53" height="52" viewBox="0 0 53 52" fill="none" xmlns="http://www.w3.org/2000/svg">
<rect width="52.6186" height="51.9588" rx="16" fill="#20083B" fill-opacity="0.75"/>
<rect x="0.5" y="0.5" width="51.6186" height="50.9588" rx="15.5" stroke="#FFFCFC" stroke-opacity="0.5"/>
<path d="M27.1524 26C27.1524 28.7554 24.8887 31 22.0762 31C19.2637 31 17 28.7554 17 26C17 23.2446 19.2637 21 22.0762 21C24.8887 21 27.1524 23.2446 27.1524 26ZM32.7226 26C32.7226 28.5941 31.5838 30.7043 30.1845 30.7043C28.7851 30.7043 27.6463 28.5941 27.6463 26C27.6463 23.4059 28.7851 21.2957 30.1845 21.2957C31.5838 21.2957 32.7226 23.4059 32.7226 26ZM35 26C35 28.3253 34.6021 30.2204 34.1082 30.2204C33.6143 30.2204 33.2165 28.3253 33.2165 26C33.2165 23.6747 33.6143 21.7796 34.1082 21.7796C34.6021 21.7796 35 23.6747 35 26Z" fill="#FFFDFD"/>
</svg>
