<svg width="18" height="19" viewBox="0 0 18 19" fill="none" xmlns="http://www.w3.org/2000/svg">
    <ellipse cx="9" cy="9.5" rx="9" ry="9.5" fill="#372649"/>
    <g clip-path="url(#clip0_0_1)">
    <path d="M4 13.0922C4.9073 13.665 5.98718 14 7.14596 14C10.9527 14 13.1075 10.835 12.9793 7.99029C13.3787 7.70388 13.7288 7.34951 14.0049 6.9466C13.6351 7.1068 13.2406 7.21359 12.8264 7.26214C13.2505 7.01456 13.5759 6.6165 13.7288 6.14563C13.3343 6.37864 12.8955 6.54369 12.427 6.63592C12.0523 6.24272 11.5197 6 10.928 6C9.60158 6 8.63018 7.21845 8.93097 8.48058C7.21992 8.39806 5.70611 7.59223 4.69527 6.36893C4.15779 7.2767 4.41913 8.46602 5.33136 9.06796C4.99606 9.05825 4.68047 8.96602 4.39941 8.81553C4.37968 9.75243 5.06016 10.6262 6.04635 10.8204C5.75542 10.8981 5.43984 10.9175 5.11933 10.8544C5.38067 11.6553 6.14004 12.2427 7.03748 12.2573C6.17456 12.9223 5.08974 13.2184 4 13.0922Z" fill="#FFFDFD"/>
    </g>
    <defs>
    <clipPath id="clip0_0_1">
    <rect width="10" height="8" fill="white" transform="translate(4 6)"/>
    </clipPath>
    </defs>
</svg>
