<svg width="53" height="52" viewBox="0 0 53 52" fill="none" xmlns="http://www.w3.org/2000/svg">
<rect width="52.6186" height="51.9588" rx="16" fill="#20083B" fill-opacity="0.75"/>
<rect x="0.5" y="0.5" width="51.6186" height="50.9588" rx="15.5" stroke="#FFFCFC" stroke-opacity="0.5"/>
<g clip-path="url(#clip0_0_1)">
<path d="M18 31.5299C19.4499 32.4606 21.1785 33.0051 23.0336 33.0051C29.131 33.0051 32.569 27.8575 32.3664 23.2418C33.0059 22.7796 33.5631 22.2034 34.0063 21.5449C33.4175 21.8045 32.7843 21.9818 32.1195 22.0641C32.797 21.6589 33.3162 21.0131 33.5631 20.2469C32.9299 20.6205 32.2271 20.8991 31.48 21.0447C30.8785 20.4052 30.0301 20.0063 29.0866 20.0063C26.9656 20.0063 25.408 21.9818 25.8892 24.0396C23.1539 23.8939 20.7352 22.5896 19.1143 20.6015C18.2532 22.0768 18.6711 24.0079 20.1274 24.983C19.5892 24.964 19.0827 24.8184 18.6395 24.5714C18.6015 26.091 19.6969 27.5156 21.2734 27.8322C20.8112 27.9588 20.3047 27.9842 19.7918 27.8892C20.2097 29.1935 21.4191 30.1433 22.8563 30.1686C21.476 31.2513 19.7412 31.7325 17.9937 31.5299H18Z" fill="#FFFDFD"/>
</g>
<defs>
<clipPath id="clip0_0_1">
<rect width="16" height="13.0051" fill="white" transform="translate(18 20)"/>
</clipPath>
</defs>
</svg>
