<svg width="53" height="52" viewBox="0 0 53 52" fill="none" xmlns="http://www.w3.org/2000/svg">
<rect width="52.6186" height="51.9588" rx="16" fill="#20083B" fill-opacity="0.75"/>
<rect x="0.5" y="0.5" width="51.6186" height="50.9588" rx="15.5" stroke="#FFFCFC" stroke-opacity="0.5"/>
<g clip-path="url(#clip0_0_1)">
<path d="M33.6417 21.872C33.4446 21.1375 32.8714 20.5553 32.1369 20.3583C30.8113 20 25.4955 20 25.4955 20C25.4955 20 20.1796 20 18.854 20.3583C18.124 20.5553 17.5463 21.133 17.3493 21.872C16.9955 23.2065 16.9955 25.9921 16.9955 25.9921C16.9955 25.9921 16.9955 28.7777 17.3493 30.1122C17.5463 30.8467 18.1196 31.4289 18.854 31.6259C20.1796 31.9842 25.4955 31.9842 25.4955 31.9842C25.4955 31.9842 30.8113 31.9842 32.1369 31.6259C32.8669 31.4289 33.4446 30.8512 33.6417 30.1122C33.9955 28.7777 33.9955 25.9921 33.9955 25.9921C33.9955 25.9921 33.9955 23.2065 33.6417 21.872Z" fill="#FFFDFD"/>
<path d="M23.7623 28.5134V23.4618L28.2049 25.9876L23.7623 28.5134Z" fill="#372649"/>
</g>
<defs>
<clipPath id="clip0_0_1">
<rect width="17" height="11.9752" fill="white" transform="translate(17 20)"/>
</clipPath>
</defs>
</svg>
